<svg width="10" height="10" viewBox="0 0 10 10" fill="none" xmlns="http://www.w3.org/2000/svg">
<path fill-rule="evenodd" clip-rule="evenodd" d="M3.79285 7.40118C4.57434 7.40118 5.31372 7.13031 5.90625 6.63495L6.21143 6.94012L6.10999 7.04156C6.05664 7.09485 6.02686 7.16681 6.02686 7.24194C6.02686 7.31702 6.05664 7.38928 6.10999 7.44226L8.44971 9.78168C8.50488 9.83698 8.57751 9.86475 8.65002 9.86475C8.72253 9.86475 8.79504 9.83698 8.85034 9.78168L9.47595 9.15607C9.5293 9.10278 9.55908 9.03082 9.55908 8.95569C9.55908 8.88062 9.5293 8.80835 9.47595 8.75537L7.13623 6.41589C7.02551 6.30511 6.84644 6.30511 6.7356 6.41589L6.61206 6.53949L6.30798 6.23541C6.81604 5.63922 7.09485 4.89142 7.09485 4.09973C7.09485 3.2179 6.75146 2.38879 6.12781 1.76508C5.50415 1.14142 4.67493 0.797974 3.79321 0.797974C2.91138 0.797974 2.08215 1.14142 1.45886 1.76508C0.835083 2.38879 0.491699 3.21759 0.491699 4.09973C0.491699 4.98157 0.835083 5.81067 1.45886 6.43408C2.08191 7.05804 2.91101 7.40118 3.79285 7.40118ZM8.87476 8.95599L8.64978 9.18066L6.71069 7.24194L6.93567 7.01721L8.87476 8.95599ZM3.79285 1.36499C3.06238 1.36499 2.37573 1.64948 1.85913 2.16608C1.34229 2.68262 1.05811 3.3692 1.05811 4.10004C1.05811 4.83026 1.34265 5.51709 1.85913 6.03369C2.37573 6.55023 3.06238 6.83472 3.79285 6.83472C4.52332 6.83472 5.21021 6.55023 5.72681 6.03369C6.24341 5.51709 6.52783 4.83051 6.52783 4.10004C6.52783 3.36951 6.24341 2.68262 5.72681 2.16608C5.21021 1.64948 4.52332 1.36499 3.79285 1.36499Z" fill="white"/>
</svg>
