<svg width="71" height="10" viewBox="0 0 71 10" fill="none" xmlns="http://www.w3.org/2000/svg">
<path fill-rule="evenodd" clip-rule="evenodd" d="M61.5701 9.50127L62.321 6.36967L59.829 4.2661C59.7294 4.18233 59.6904 4.04688 59.7304 3.92331C59.77 3.79974 59.8809 3.71212 60.0108 3.70153L63.2976 3.4316L64.5758 0.462721C64.6264 0.344607 64.7431 0.268219 64.872 0.268219C65.001 0.268219 65.1176 0.344607 65.1682 0.462721L66.4455 3.4316L69.7333 3.70185C69.8632 3.71244 69.9741 3.80006 70.0137 3.92363C70.0537 4.0472 70.0147 4.18265 69.9151 4.26642L67.4224 6.36999L68.1734 9.5016C68.2037 9.62709 68.155 9.75836 68.0509 9.83475C67.9942 9.87616 67.9271 9.89702 67.8598 9.89702C67.803 9.89702 67.746 9.88193 67.6951 9.85176L64.8724 8.18181L62.0483 9.85176C61.9365 9.91788 61.797 9.9105 61.6925 9.83443C61.5884 9.75804 61.5398 9.62677 61.5701 9.50127ZM63.8136 3.86169C63.7665 3.97113 63.6628 4.0456 63.5438 4.05523L60.84 4.27701L62.8896 6.0073C62.9824 6.0853 63.023 6.20887 62.9946 6.32666L62.3745 8.91231L64.708 7.53219C64.8092 7.47184 64.9358 7.47184 65.0371 7.53219L67.3692 8.91199L66.7491 6.32666C66.7208 6.20887 66.7614 6.0853 66.8542 6.0073L68.9043 4.27701L66.1989 4.0549C66.08 4.04528 65.9762 3.97081 65.9292 3.86137L64.872 1.40345L63.8136 3.86169Z" fill="#FF0079"/>
<path fill-rule="evenodd" clip-rule="evenodd" d="M5.93335 0.920898L7.14548 3.98726L10.5959 4.19537L8.13315 6.25147L8.68346 9.57929L6.04485 7.91826L3.15064 9.26836L3.74748 6.33221L1.37601 4.0793L4.78995 3.68639L5.93335 0.920898Z" fill="#FF0079"/>
<path fill-rule="evenodd" clip-rule="evenodd" d="M2.51131 9.50127L3.26227 6.36967L0.770234 4.2661C0.670643 4.18233 0.631645 4.04688 0.67161 3.92331C0.711253 3.79974 0.822125 3.71212 0.952012 3.70153L4.23884 3.4316L5.51709 0.462721C5.56769 0.344607 5.68437 0.268219 5.81329 0.268219C5.94221 0.268219 6.05888 0.344607 6.10948 0.462721L7.38676 3.4316L10.6746 3.70185C10.8044 3.71244 10.9153 3.80006 10.955 3.92363C10.9949 4.0472 10.9559 4.18265 10.8563 4.26642L8.36366 6.36999L9.11462 9.5016C9.14492 9.62709 9.09625 9.75836 8.99215 9.83475C8.93542 9.87616 8.86838 9.89702 8.80102 9.89702C8.7443 9.89702 8.68725 9.88193 8.63632 9.85176L5.81361 8.18181L2.9896 9.85176C2.87776 9.91788 2.73821 9.9105 2.63378 9.83443C2.52968 9.75804 2.48101 9.62677 2.51131 9.50127ZM4.75485 3.86169C4.70779 3.97113 4.60401 4.0456 4.48508 4.05523L1.78129 4.27701L3.83081 6.0073C3.92363 6.0853 3.96424 6.20887 3.93588 6.32666L3.31577 8.91231L5.64923 7.53219C5.75044 7.47184 5.8771 7.47184 5.9783 7.53219L8.31048 8.91199L7.69037 6.32666C7.66201 6.20887 7.70262 6.0853 7.79544 6.0073L9.8456 4.27701L7.1402 4.0549C7.02127 4.04528 6.91749 3.97081 6.87043 3.86137L5.81329 1.40345L4.75485 3.86169Z" fill="#FF0079"/>
<path fill-rule="evenodd" clip-rule="evenodd" d="M17.276 9.50127L18.027 6.36967L15.5349 4.2661C15.4353 4.18233 15.3963 4.04688 15.4363 3.92331C15.4759 3.79974 15.5868 3.71212 15.7167 3.70153L19.0035 3.4316L20.2818 0.462721C20.3324 0.344607 20.4491 0.268219 20.578 0.268219C20.7069 0.268219 20.8236 0.344607 20.8742 0.462721L22.1515 3.4316L25.4393 3.70185C25.5691 3.71244 25.68 3.80006 25.7197 3.92363C25.7596 4.0472 25.7206 4.18265 25.621 4.26642L23.1284 6.36999L23.8793 9.5016C23.9096 9.62709 23.8609 9.75836 23.7568 9.83475C23.7001 9.87616 23.6331 9.89702 23.5657 9.89702C23.509 9.89702 23.4519 9.88193 23.401 9.85176L20.5783 8.18181L17.7543 9.85176C17.6425 9.91788 17.5029 9.9105 17.3985 9.83443C17.2944 9.75804 17.2457 9.62677 17.276 9.50127ZM19.5195 3.86169C19.4725 3.97113 19.3687 4.0456 19.2498 4.05523L16.546 4.27701L18.5955 6.0073C18.6883 6.0853 18.7289 6.20887 18.7006 6.32666L18.0805 8.91231L20.4139 7.53219C20.5151 7.47184 20.6418 7.47184 20.743 7.53219L23.0752 8.91199L22.4551 6.32666C22.4267 6.20887 22.4673 6.0853 22.5601 6.0073L24.6103 4.27701L21.9049 4.0549C21.786 4.04528 21.6822 3.97081 21.6351 3.86137L20.578 1.40345L19.5195 3.86169Z" fill="#FF0079"/>
<path fill-rule="evenodd" clip-rule="evenodd" d="M20.698 0.920898L21.9102 3.98726L25.3606 4.19537L22.8978 6.25147L23.4482 9.57929L20.8095 7.91826L17.9153 9.26836L18.5122 6.33221L16.1407 4.0793L19.5546 3.68639L20.698 0.920898Z" fill="#FF0079"/>
<path fill-rule="evenodd" clip-rule="evenodd" d="M32.0407 9.50127L32.7916 6.36967L30.2996 4.2661C30.2 4.18233 30.161 4.04688 30.201 3.92331C30.2406 3.79974 30.3515 3.71212 30.4814 3.70153L33.7682 3.4316L35.0465 0.462721C35.0971 0.344607 35.2137 0.268219 35.3427 0.268219C35.4716 0.268219 35.5883 0.344607 35.6389 0.462721L36.9161 3.4316L40.2039 3.70185C40.3338 3.71244 40.4447 3.80006 40.4843 3.92363C40.5243 4.0472 40.4853 4.18265 40.3857 4.26642L37.893 6.36999L38.644 9.5016C38.6743 9.62709 38.6256 9.75836 38.5215 9.83475C38.4648 9.87616 38.3978 9.89702 38.3304 9.89702C38.2737 9.89702 38.2166 9.88193 38.1657 9.85176L35.343 8.18181L32.519 9.85176C32.4071 9.91788 32.2676 9.9105 32.1632 9.83443C32.0591 9.75804 32.0104 9.62677 32.0407 9.50127ZM34.2842 3.86169C34.2372 3.97113 34.1334 4.0456 34.0145 4.05523L31.3107 4.27701L33.3602 6.0073C33.453 6.0853 33.4936 6.20887 33.4653 6.32666L32.8451 8.91231L35.1786 7.53219C35.2798 7.47184 35.4065 7.47184 35.5077 7.53219L37.8399 8.91199L37.2197 6.32666C37.1914 6.20887 37.232 6.0853 37.3248 6.0073L39.375 4.27701L36.6696 4.0549C36.5506 4.04528 36.4469 3.97081 36.3998 3.86137L35.3427 1.40345L34.2842 3.86169Z" fill="#FF0079"/>
<path fill-rule="evenodd" clip-rule="evenodd" d="M35.4627 0.920898L36.6748 3.98726L40.1252 4.19537L37.6625 6.25147L38.2128 9.57929L35.5742 7.91826L32.68 9.26836L33.2769 6.33221L30.9054 4.0793L34.3193 3.68639L35.4627 0.920898Z" fill="#FF0079"/>
<path fill-rule="evenodd" clip-rule="evenodd" d="M46.8054 9.50127L47.5563 6.36967L45.0643 4.2661C44.9647 4.18233 44.9257 4.04688 44.9657 3.92331C45.0053 3.79974 45.1162 3.71212 45.2461 3.70153L48.5329 3.4316L49.8112 0.462721C49.8618 0.344607 49.9784 0.268219 50.1074 0.268219C50.2363 0.268219 50.3529 0.344607 50.4035 0.462721L51.6808 3.4316L54.9686 3.70185C55.0985 3.71244 55.2094 3.80006 55.249 3.92363C55.289 4.0472 55.25 4.18265 55.1504 4.26642L52.6577 6.36999L53.4087 9.5016C53.439 9.62709 53.3903 9.75836 53.2862 9.83475C53.2295 9.87616 53.1624 9.89702 53.0951 9.89702C53.0384 9.89702 52.9813 9.88193 52.9304 9.85176L50.1077 8.18181L47.2837 9.85176C47.1718 9.91788 47.0323 9.9105 46.9278 9.83443C46.8237 9.75804 46.7751 9.62677 46.8054 9.50127ZM49.0489 3.86169C49.0019 3.97113 48.8981 4.0456 48.7791 4.05523L46.0754 4.27701L48.1249 6.0073C48.2177 6.0853 48.2583 6.20887 48.2299 6.32666L47.6098 8.91231L49.9433 7.53219C50.0445 7.47184 50.1712 7.47184 50.2724 7.53219L52.6045 8.91199L51.9844 6.32666C51.9561 6.20887 51.9967 6.0853 52.0895 6.0073L54.1397 4.27701L51.4343 4.0549C51.3153 4.04528 51.2116 3.97081 51.1645 3.86137L50.1074 1.40345L49.0489 3.86169Z" fill="#FF0079"/>
<path fill-rule="evenodd" clip-rule="evenodd" d="M50.1592 0.63504V7.91934L47.4447 9.26835L48.0416 6.33221L45.6701 4.07929L49.084 3.68639L50.1592 0.63504Z" fill="#FF0079"/>
</svg>
