<svg width="11" height="11" viewBox="0 0 11 11" fill="none" xmlns="http://www.w3.org/2000/svg">
<path d="M0.814849 7.69757H10.1658C10.2996 7.69757 10.408 7.80599 10.408 7.93973V9.66227C10.408 9.79601 10.2996 9.90443 10.1658 9.90443H0.81485C0.68111 9.90443 0.572693 9.79601 0.572693 9.66227V7.93973C0.572693 7.80599 0.68111 7.69757 0.814849 7.69757Z" stroke="#FF0079" stroke-width="0.5"/>
<path d="M0.814849 0.807373H10.1658C10.2996 0.807373 10.408 0.91579 10.408 1.04953V2.77208C10.408 2.90582 10.2996 3.01423 10.1658 3.01423H0.81485C0.68111 3.01423 0.572693 2.90581 0.572693 2.77208V1.04953C0.572693 0.91579 0.68111 0.807373 0.814849 0.807373Z" stroke="#FF0079" stroke-width="0.5"/>
<path d="M0.814849 4.25247H7.70504C7.83878 4.25247 7.94719 4.36089 7.94719 4.49463V6.21717C7.94719 6.35091 7.83878 6.45933 7.70504 6.45933H0.814849C0.68111 6.45933 0.572693 6.35091 0.572693 6.21718V4.49463C0.572693 4.36089 0.68111 4.25247 0.814849 4.25247Z" stroke="#FF0079" stroke-width="0.5"/>
</svg>
