<svg width="11" height="11" viewBox="0 0 11 11" fill="none" xmlns="http://www.w3.org/2000/svg">
<path fill-rule="evenodd" clip-rule="evenodd" d="M0.601044 5.12115C0.601044 2.35587 2.84471 0.114075 5.6123 0.114075C8.37987 0.114075 10.6236 2.35587 10.6236 5.12115C10.6236 7.88642 8.37987 10.1282 5.6123 10.1282C2.84471 10.1282 0.601044 7.88642 0.601044 5.12115ZM5.47429 6.05349C5.5715 6.24184 5.85425 6.40766 6.15475 6.40766C7.04995 6.40766 7.65722 5.57524 7.65686 4.46032C7.65686 3.61793 6.95718 2.83315 5.89417 2.83315C4.57132 2.83315 3.90416 3.80074 3.90416 4.60768C3.90416 5.09589 4.08527 5.53057 4.47447 5.69271C4.53805 5.7193 4.59534 5.69381 4.61382 5.62179C4.61964 5.5987 4.62935 5.55937 4.63941 5.51859C4.65108 5.47132 4.66323 5.42209 4.67037 5.39393C4.68923 5.32264 4.68184 5.29754 4.63046 5.23549C4.51809 5.10069 4.44675 4.926 4.44675 4.67857C4.44675 3.961 4.97308 3.31842 5.81766 3.31842C6.56538 3.31842 6.9764 3.78412 6.9764 4.40676C6.9764 5.22552 6.62082 5.91687 6.09339 5.91687C5.80213 5.91687 5.58405 5.67128 5.65391 5.36992C5.68418 5.23961 5.72477 5.10553 5.76423 4.97516C5.83371 4.74564 5.89971 4.52765 5.89971 4.36208C5.89971 4.12979 5.77736 3.93553 5.52418 3.93553C5.22628 3.93553 4.98713 4.24981 4.98713 4.67082C4.98713 4.93894 5.0762 5.12027 5.0762 5.12027C5.0762 5.12027 4.77164 6.43759 4.71804 6.66803C4.66963 6.87816 4.66261 7.10897 4.66926 7.30397C4.68958 7.47903 4.85924 7.62158 5.00634 7.42954C5.10947 7.26077 5.22072 7.04767 5.27839 6.83421C5.31276 6.7079 5.47429 6.05349 5.47429 6.05349Z" fill="#BABBC3"/>
</svg>
