<svg width="10" height="11" viewBox="0 0 10 11" fill="none" xmlns="http://www.w3.org/2000/svg">
<path d="M6.00308 0.807373H9.44818C9.58191 0.807373 9.69033 0.91579 9.69033 1.04953V4.49462C9.69033 4.62836 9.58191 4.73678 9.44818 4.73678H6.00308C5.86934 4.73678 5.76093 4.62836 5.76093 4.49462V1.04953C5.76093 0.91579 5.86934 0.807373 6.00308 0.807373Z" stroke="#FF0079" stroke-width="0.5"/>
<path d="M0.835479 0.807373H4.28057C4.41431 0.807373 4.52273 0.91579 4.52273 1.04953V4.49462C4.52273 4.62836 4.41431 4.73678 4.28057 4.73678H0.835478C0.70174 4.73678 0.593323 4.62836 0.593323 4.49462V1.04953C0.593323 0.91579 0.701739 0.807373 0.835479 0.807373Z" stroke="#FF0079" stroke-width="0.5"/>
<path d="M6.00308 5.97501H9.44818C9.58191 5.97501 9.69033 6.08342 9.69033 6.21716V9.66226C9.69033 9.796 9.58191 9.90441 9.44818 9.90441H6.00308C5.86934 9.90441 5.76093 9.796 5.76093 9.66226V6.21716C5.76093 6.08342 5.86934 5.97501 6.00308 5.97501Z" stroke="#FF0079" stroke-width="0.5"/>
<path d="M0.835479 5.97501H4.28057C4.41431 5.97501 4.52273 6.08342 4.52273 6.21716V9.66226C4.52273 9.796 4.41431 9.90441 4.28057 9.90441H0.835478C0.70174 9.90441 0.593323 9.796 0.593323 9.66226V6.21716C0.593323 6.08342 0.701739 5.97501 0.835479 5.97501Z" stroke="#FF0079" stroke-width="0.5"/>
</svg>
