<svg width="11" height="11" viewBox="0 0 11 11" fill="none" xmlns="http://www.w3.org/2000/svg">
<path fill-rule="evenodd" clip-rule="evenodd" d="M0.583618 5.40637C0.583618 2.64103 2.82723 0.399292 5.59488 0.399292C8.36252 0.399292 10.6061 2.64103 10.6061 5.40637C10.6061 8.17171 8.36252 10.4135 5.59488 10.4135C2.82723 10.4135 0.583618 8.17171 0.583618 5.40637ZM3.67981 7.39979H4.5901V4.4734H3.67981V7.39979ZM4.13516 4.07338C3.84339 4.07338 3.6072 3.83706 3.6072 3.54593C3.60727 3.25507 3.84339 3.01875 4.13516 3.01875C4.42613 3.01875 4.66265 3.25507 4.66265 3.54593C4.66265 3.83713 4.42606 4.07338 4.13516 4.07338ZM7.08989 7.39979H7.99945V5.79467C7.99945 5.00674 7.82932 4.40065 6.90756 4.40065C6.46468 4.40065 6.16787 4.64319 6.0463 4.87329H6.03404V4.4734H5.16099V7.39972H6.07048V5.95208C6.07048 5.5704 6.14329 5.20076 6.61672 5.20076C7.08359 5.20076 7.08989 5.63726 7.08989 5.97664V7.39979Z" fill="#BABBC3"/>
</svg>
