<svg width="11" height="11" viewBox="0 0 11 11" fill="none" xmlns="http://www.w3.org/2000/svg">
<path fill-rule="evenodd" clip-rule="evenodd" d="M0.619415 5.18848C0.619415 2.42313 2.86302 0.181396 5.63067 0.181396C8.39832 0.181396 10.6419 2.42313 10.6419 5.18848C10.6419 7.95382 8.39832 10.1956 5.63067 10.1956C2.86302 10.1956 0.619415 7.95382 0.619415 5.18848ZM7.66087 4.61255C7.66087 4.57442 7.66008 4.53649 7.65857 4.49863C7.847 4.36102 8.00856 4.19244 8.13893 3.99748C8.14484 3.98868 8.14425 3.97707 8.13742 3.96893C8.13052 3.96086 8.11916 3.9581 8.10957 3.9625C7.96646 4.02596 7.816 4.0715 7.66094 4.09847C7.82559 3.97477 7.94814 3.80343 8.01099 3.60703C8.01401 3.59758 8.01086 3.58734 8.00324 3.58117C7.99543 3.57507 7.98479 3.57428 7.97631 3.57934C7.79084 3.68919 7.59007 3.76662 7.37932 3.80954C7.19234 3.61582 6.93147 3.50499 6.66154 3.50499C6.11249 3.50499 5.66576 3.95128 5.66576 4.49994C5.66576 4.56628 5.67219 4.63204 5.68487 4.69582C4.92434 4.6489 4.21313 4.28405 3.72962 3.69148C3.7247 3.68545 3.71714 3.68203 3.70933 3.68282C3.70158 3.68341 3.69462 3.68774 3.69068 3.6945C3.60241 3.84576 3.55578 4.01874 3.55578 4.19474C3.55578 4.49981 3.69449 4.785 3.93072 4.97314C3.80903 4.9585 3.69041 4.92031 3.58323 4.86086C3.57601 4.85679 3.56707 4.85686 3.55992 4.86106C3.55269 4.86519 3.54816 4.8728 3.54796 4.88114L3.54783 4.89387C3.54783 5.33189 3.83674 5.71663 4.24781 5.84426C4.13957 5.86185 4.02727 5.86047 3.9168 5.83954C3.90866 5.83803 3.90012 5.84078 3.89454 5.84708C3.88902 5.85338 3.88718 5.86211 3.88974 5.87012C4.01295 6.25459 4.35552 6.5241 4.75411 6.5577C4.42159 6.80109 4.02845 6.92938 3.61318 6.92938C3.53667 6.92938 3.45956 6.92492 3.38417 6.91593C3.37333 6.91468 3.36276 6.92111 3.35901 6.93148C3.35527 6.94191 3.35914 6.95353 3.36854 6.9595C3.81796 7.24751 4.33765 7.39969 4.8714 7.39969C6.61747 7.39969 7.66087 5.98259 7.66087 4.61255Z" fill="#BABBC3"/>
</svg>
